<svg xmlns="http://www.w3.org/2000/svg" viewBox="0 0 256 256">
  <defs>
    <linearGradient id="bg" x1="0%" y1="0%" x2="100%" y2="100%">
      <stop offset="0%" style="stop-color:#25D366;stop-opacity:1" />
      <stop offset="100%" style="stop-color:#128C7E;stop-opacity:1" />
    </linearGradient>
  </defs>
  <rect width="256" height="256" fill="url(#bg)" rx="32"/>
  <path d="M128 40c-48.6 0-88 39.4-88 88 0 15.6 4.1 30.2 11.2 42.9L40 216l46.8-11.1c12.3 6.5 26.3 10.1 41.2 10.1 48.6 0 88-39.4 88-88s-39.4-88-88-88z" fill="#fff"/>
  <path d="M128 52c42.4 0 76 33.6 76 76s-33.6 76-76 76c-13.2 0-25.6-3.4-36.4-9.3l-3.2-1.8-26.8 6.4 6.5-25.9-2-3.4c-6.5-11.1-10.1-24-10.1-37.6 0-42.4 33.6-76 76-76z" fill="#25D366"/>
  <circle cx="100" cy="110" r="18" fill="#fff"/>
  <circle cx="156" cy="110" r="18" fill="#fff"/>
  <circle cx="128" cy="150" r="18" fill="#fff"/>
  <path d="M100 110l-8-8m64 8l8-8m-36 48l-6 6m12 0l6-6" stroke="#1E88E5" stroke-width="3" stroke-linecap="round" fill="none"/>
  <circle cx="92" cy="102" r="4" fill="#1E88E5"/>
  <circle cx="164" cy="102" r="4" fill="#1E88E5"/>
  <circle cx="128" cy="158" r="4" fill="#1E88E5"/>
</svg>